<svg xmlns="http://www.w3.org/2000/svg" viewBox="0 0 102.59 142.18"><defs><style>.a{fill:#fff;}</style></defs><title>Asset 1</title><path class="a" d="M.77,140.3c12.88-2.47,24.94-8.51,35.29-16.53a118.86,118.86,0,0,0,26.2-29.1A153.74,153.74,0,0,0,71.9,77.58a180,180,0,0,0,7.62-18.06A284.57,284.57,0,0,0,89.9,21.59h0a1,1,0,0,1,1.88.24A133,133,0,0,1,83.71,61,147.64,147.64,0,0,1,65.06,96.57a131.39,131.39,0,0,1-27.79,28.78A93.26,93.26,0,0,1,1.15,142.16a.95.95,0,1,1-.4-1.85h0Z"/><path class="a" d="M100.74,31.42c-.79-2.39-1.58-4.77-2.29-7.18S97,19.42,96.43,17s-1.2-4.89-1.74-7.36-1-5-1.37-7.48l3.36,1.07c-1.17,1.56-2.36,3.09-3.62,4.57s-2.55,2.93-3.89,4.35a51,51,0,0,1-4.27,4,33.91,33.91,0,0,1-4.83,3.38,1,1,0,0,1-1.31-1.37,49.39,49.39,0,0,1,3.42-4.71c1.21-1.49,2.46-2.93,3.75-4.33l3.9-4.18L93.76.75l.16-.17a1.86,1.86,0,0,1,3.21,1.24c.05,2.45.17,4.91.37,7.37s.53,4.91,1,7.34,1,4.84,1.67,7.22a66.66,66.66,0,0,0,2.38,7,.95.95,0,1,1-1.75.72Z"/></svg>